<svg width="16" height="16" viewBox="0 0 16 16" fill="none" xmlns="http://www.w3.org/2000/svg">
<rect width="16" height="16" rx="1.6" fill="url(#paint0_linear_8_4)"/>
<path d="M8.00524 2.35796C7.92582 2.60945 7.87288 2.84771 7.81993 3.05949C7.56844 4.29047 7.34342 6.19651 7.34342 7.83782C7.34342 9.92916 7.72728 11.4116 8.16408 12.7485L6.64189 13.1985C6.2448 12.0073 5.86095 10.0483 5.86095 8.10255C5.86095 6.36858 6.0992 4.42284 6.2448 3.11244C6.27128 2.84771 6.29775 2.54327 6.28451 2.30502L8.00524 2.35796ZM5.63593 3.81396C8.15084 3.81396 10.1495 3.69484 12.1747 3.20509L12.1879 4.72727C10.3745 5.05818 7.59491 5.25673 5.59622 5.25673C4.89469 5.25673 3.86226 5.19055 3.24015 5.16407L3.20044 3.64189C3.67695 3.70807 4.82851 3.81396 5.63593 3.81396ZM11.354 5.75971C11.2481 5.99796 11.0496 6.60684 10.9569 6.8848C10.2025 9.26735 8.83913 11.0543 7.58168 11.9808C6.72131 12.6161 5.56975 13.1985 4.41818 13.1985C3.45193 13.1985 2.64451 12.6161 2.64451 11.266C2.64451 9.39971 4.31229 7.45396 6.41688 6.68625C7.29048 6.36858 8.37586 6.17004 9.36858 6.17004C11.8438 6.17004 13.6704 7.59956 13.6704 9.66444C13.6704 11.544 12.5585 13.3574 9.31564 13.8604L8.4288 12.4573C10.9834 12.1793 12.0291 10.8954 12.0291 9.58502C12.0291 8.45993 11.0628 7.50691 9.27593 7.50691C8.07142 7.50691 7.1184 7.85105 6.46982 8.14225C5.14618 8.76436 4.2064 10.0351 4.2064 10.9219C4.2064 11.3587 4.37848 11.5837 4.81528 11.5837C5.43738 11.5837 6.32422 11.1469 7.13164 10.3924C8.09789 9.5056 8.99797 8.32756 9.52742 6.50095C9.62008 6.22298 9.71273 5.65382 9.72597 5.36262L11.354 5.75971Z" fill="white"/>
<defs>
<linearGradient id="paint0_linear_8_4" x1="4" y1="-3.57628e-07" x2="16" y2="16" gradientUnits="userSpaceOnUse">
<stop stop-color="#FF0000"/>
<stop offset="0.72" stop-color="#A20000"/>
<stop offset="1" stop-color="#530000"/>
</linearGradient>
</defs>
</svg>
