<svg width="16" height="16" viewBox="0 0 16 16" fill="none" xmlns="http://www.w3.org/2000/svg">
<circle cx="8" cy="8" r="8" fill="#333333"/>
<path d="M7.681 3.299C7.637 3.431 7.593 3.629 7.56 3.783C7.373 4.707 7.186 6.445 7.186 7.952C7.186 9.382 7.494 10.702 7.835 11.736L7.032 11.978C6.713 10.999 6.416 9.437 6.416 8.04C6.416 6.533 6.636 4.751 6.735 3.805C6.757 3.607 6.768 3.409 6.768 3.266L7.681 3.299ZM5.91 4.652C7.846 4.652 9.76 4.498 11.278 4.157L11.289 4.971C9.705 5.246 7.538 5.411 5.899 5.411C5.426 5.411 4.568 5.367 4.117 5.345L4.095 4.52C4.48 4.586 5.437 4.652 5.91 4.652ZM10.497 5.95C10.431 6.093 10.332 6.39 10.266 6.566C9.617 8.601 8.517 10.13 7.362 11.021C6.658 11.56 5.778 11.967 4.997 11.967C4.271 11.967 3.699 11.527 3.699 10.592C3.699 9.085 5.096 7.534 6.724 6.907C7.461 6.621 8.352 6.456 9.067 6.456C11.146 6.456 12.455 7.666 12.455 9.206C12.455 10.779 11.41 12.154 8.858 12.561L8.385 11.824C10.365 11.604 11.597 10.581 11.597 9.162C11.597 8.095 10.695 7.16 9.056 7.16C8.132 7.16 7.318 7.424 6.757 7.677C5.514 8.227 4.524 9.437 4.524 10.449C4.524 10.9 4.744 11.12 5.151 11.12C5.701 11.12 6.416 10.812 7.12 10.196C8.099 9.338 9.001 8.15 9.507 6.368C9.551 6.203 9.606 5.906 9.617 5.73L10.497 5.95Z" fill="white"/>
</svg>
